Patient4_TMGait_0pt7_01_left_08_GRF.mot
version=1
nRows=78
nColumns=19
inDegrees=no
endheader
time	F1x	F1y	F1z	M1x	M1y	M1z	F2x	F2y	F2z	M2x	M2y	M2z	EC1x	EC1y	EC1z	EC2x	EC2y	EC2z
9.21	-3.9097	-0.043643	2.2045	0.395	-4.6208	-5.0133	-1.4788	749.9375	-63.5036	279.7426	66.571	766.1779	-0.0592	0.0182	-0.0073	-0.0462	0.0165	0.9585
9.2214	-2.6595	0.82268	1.5121	-0.031056	-3.156	-2.381	-5.6287	748.5949	-63.6916	279.1109	67.583	759.0387	-0.0592	0.0182	-0.0073	-0.0462	0.0165	0.9585
9.2327	-1.6607	1.5809	0.93452	-0.40572	-1.9411	-0.11579	-8.5322	746.5273	-63.7447	278.0732	67.9883	751.1428	-0.0592	0.0182	-0.0073	-0.0462	0.0165	0.9585
9.2441	-0.95868	2.207	0.48605	-0.71252	-1.0264	1.6712	-10.0466	744.0745	-63.6271	276.7482	67.7484	743.0905	-0.0592	0.0182	-0.0073	-0.0462	0.0165	0.9585
9.2554	-0.4935	2.6992	0.18192	-0.94742	-0.41423	2.9745	-10.3048	741.7684	-63.394	275.3519	66.9979	735.5255	-0.0592	0.0182	-0.0073	-0.0462	0.0165	0.9585
9.2668	-0.2465	3.071	-0.0083091	-1.1166	-0.054461	3.8679	-9.5758	740.1543	-63.1059	274.1225	65.9049	728.9901	-0.0592	0.0182	-0.0073	-0.0462	0.0165	0.9585
9.2781	-0.14906	3.3189	-0.099386	-1.2238	0.104	4.4004	-8.1573	739.6862	-62.8569	273.2677	64.6739	723.8609	-0.0592	0.0182	-0.0073	-0.0462	0.0165	0.9585
9.2895	-0.17358	3.4463	-0.11716	-1.2731	0.11313	4.6443	-6.3359	740.6424	-62.7235	272.9328	63.4811	720.3088	-0.0592	0.0182	-0.0073	-0.0462	0.0165	0.9585
9.3009	-0.28056	3.4142	-0.085635	-1.2553	0.02398	4.5935	-4.3435	743.1349	-62.7519	273.2012	62.447	718.3406	-0.0592	0.0182	-0.0073	-0.0462	0.0165	0.9585
9.3122	-0.45779	3.175	-0.013471	-1.1555	-0.13554	4.2494	-2.3434	747.1212	-62.9534	274.0955	61.6291	717.8132	-0.0592	0.0182	-0.0073	-0.0462	0.0165	0.9585
9.3236	-0.66638	2.6368	0.074769	-0.9457	-0.32308	3.5414	-0.4512	752.389	-63.2923	275.5696	61.0173	718.4387	-0.0592	0.0182	-0.0073	-0.0462	0.0165	0.9585
9.3349	-0.89404	1.7121	0.17696	-0.59474	-0.5278	2.3927	1.3109	758.5588	-63.7226	277.5052	60.568	719.8039	-0.0592	0.0182	-0.0073	-0.0462	0.0165	0.9585
9.3463	-1.0877	0.30391	0.26429	-0.070647	-0.70442	0.70675	2.9052	765.052	-64.1916	279.6988	60.2274	721.3418	-0.0592	0.0182	-0.0073	-0.0462	0.0165	0.9585
9.3576	-1.194	-1.6119	0.32857	0.63479	-0.82246	-1.544	4.3562	771.1164	-64.6797	281.8671	59.9601	722.3657	-0.0592	0.0182	-0.0073	-0.0462	0.0165	0.9585
9.369	-1.121	-3.9658	0.33597	1.4924	-0.81197	-4.2851	5.6705	775.8252	-65.1854	283.6559	59.7468	722.0547	-0.0592	0.0182	-0.0073	-0.0462	0.0165	0.9585
9.3804	-0.74801	-6.5089	0.25721	2.4099	-0.59242	-7.2316	6.8906	778.2307	-65.7407	284.692	59.5951	719.595	-0.0592	0.0182	-0.0073	-0.0462	0.0165	0.9585
9.3917	0.061722	-8.7484	0.050163	3.2056	-0.059751	-9.8339	8.0473	777.5261	-66.3782	284.6555	59.5152	714.3267	-0.0592	0.0182	-0.0073	-0.0462	0.0165	0.9585
9.4031	1.4828	-9.8401	-0.33563	3.5684	0.90749	-11.1388	9.1894	773.2647	-67.099	283.3644	59.4869	705.9194	-0.0592	0.0182	-0.0073	-0.0462	0.0165	0.9585
9.4144	3.6708	-8.526	-0.93287	3.0347	2.4064	-9.713	10.356	765.4727	-67.8523	280.8174	59.4487	694.4633	-0.0592	0.0182	-0.0073	-0.0462	0.0165	0.9585
9.4258	6.7123	-3.1119	-1.7677	0.97769	4.4935	-3.6126	11.5923	754.5864	-68.526	277.172	59.2886	680.4112	-0.0592	0.0182	-0.0073	-0.0462	0.0165	0.9585
9.4371	10.5453	8.4927	-2.8064	-3.3741	7.1049	9.5613	12.9399	741.2604	-68.9817	272.6662	58.8808	664.4113	-0.0592	0.0182	-0.0073	-0.0462	0.0165	0.9585
9.4485	14.8438	28.5373	-3.9707	-10.8493	10.0223	32.3729	14.4209	726.0801	-69.0529	267.5103	58.0816	647.0338	-0.0592	0.0182	-0.0073	-0.0462	0.0165	0.9585
9.4599	18.8734	59.0185	-5.0548	-22.1719	12.7337	67.1103	16.0755	709.3693	-68.5843	261.8123	56.7546	628.6106	-0.0592	0.0182	-0.0073	-0.0462	0.0165	0.9585
9.4712	21.364	100.9039	-5.7227	-37.6788	14.3694	114.9128	17.9186	691.0812	-67.4363	255.5434	54.7797	609.1348	-0.0592	0.0182	-0.0073	-0.0462	0.0165	0.9585
9.4826	20.4848	153.2189	-5.431	-56.9787	13.6352	174.73	19.9397	670.8582	-65.4735	248.5594	52.0527	588.3248	-0.0592	0.0182	-0.0073	-0.0462	0.0165	0.9585
9.4939	14.8867	212.734	-3.5437	-78.8289	9.3175	242.9584	22.0527	648.0997	-62.6246	240.6313	48.5473	565.6826	-0.0592	0.0182	-0.0073	-0.0462	0.0165	0.9585
9.5053	5.263	274.4114	0.63975	-101.3085	0.87771	313.8034	24.1487	622.2015	-58.8631	231.5235	44.2901	540.71	-0.0592	0.0182	-0.0073	-0.0462	0.0165	0.9585
9.5166	-6.3025	332.2487	7.4446	-122.2153	-11.2251	380.1279	26.0908	592.6322	-54.3126	221.0266	39.4447	512.9575	-0.0592	0.0182	-0.0073	-0.0462	0.0165	0.9585
9.528	-17.7723	382.2145	15.9896	-140.1337	-25.206	436.9354	27.7783	559.1092	-49.2253	209.0149	34.2673	482.1823	-0.0592	0.0182	-0.0073	-0.0462	0.0165	0.9585
9.5394	-27.9149	423.7812	25.0035	-154.9318	-39.1285	483.3811	29.1591	521.7024	-43.918	195.4885	29.0443	448.4242	-0.0592	0.0182	-0.0073	-0.0462	0.0165	0.9585
9.5507	-35.9217	458.2083	33.3984	-167.1482	-51.4637	520.8378	30.1875	480.8122	-38.6937	180.5739	24.0398	411.995	-0.0592	0.0182	-0.0073	-0.0462	0.0165	0.9585
9.5621	-41.4867	487.123	40.408	-177.4459	-61.2285	551.2016	30.8139	437.0739	-33.7398	164.494	19.4259	373.4111	-0.0592	0.0182	-0.0073	-0.0462	0.0165	0.9585
9.5734	-44.4949	511.7503	45.5043	-186.3171	-67.8198	575.9391	30.8941	391.3043	-29.109	147.553	15.2964	333.3648	-0.0592	0.0182	-0.0073	-0.0462	0.0165	0.9585
9.5848	-45.0198	532.6847	48.6344	-193.9974	-71.236	595.7975	30.2751	344.5323	-24.7595	130.145	11.6763	292.7366	-0.0592	0.0182	-0.0073	-0.0462	0.0165	0.9585
9.5961	-43.3418	550.4602	50.1163	-200.6576	-71.9625	611.4743	28.7735	297.9749	-20.6732	112.7365	8.6109	252.5749	-0.0592	0.0182	-0.0073	-0.0462	0.0165	0.9585
9.6075	-39.8484	565.7644	50.4316	-206.511	-70.705	623.8856	26.3215	252.9311	-16.9255	95.8258	6.1853	213.9639	-0.0592	0.0182	-0.0073	-0.0462	0.0165	0.9585
9.6189	-35.0984	579.6523	50.1583	-211.8893	-68.3054	634.3326	22.9535	210.7172	-13.6455	79.916	4.4831	177.9942	-0.0592	0.0182	-0.0073	-0.0462	0.0165	0.9585
9.6302	-29.6168	593.1672	49.7487	-217.1335	-65.4616	644.0532	18.9207	172.4485	-10.9455	65.4397	3.5044	145.5448	-0.0592	0.0182	-0.0073	-0.0462	0.0165	0.9585
9.6416	-23.9618	607.0697	49.6773	-222.4837	-62.8796	653.9663	14.5813	138.8705	-8.8512	52.6912	3.1364	117.191	-0.0592	0.0182	-0.0073	-0.0462	0.0165	0.9585
9.6529	-18.6005	621.7703	50.2095	-228.0722	-61.0075	664.515	10.3425	110.1897	-7.2837	41.7676	3.1723	93.0379	-0.0592	0.0182	-0.0073	-0.0462	0.0165	0.9585
9.6643	-13.8559	637.5691	51.4381	-233.9999	-60.0577	676.0701	6.4988	86.1669	-6.1042	32.5975	3.3989	72.8636	-0.0592	0.0182	-0.0073	-0.0462	0.0165	0.9585
9.6756	-9.8328	654.6961	53.2343	-240.3592	-59.938	688.8484	3.2547	66.291	-5.1382	25.0058	3.6108	56.2015	-0.0592	0.0182	-0.0073	-0.0462	0.0165	0.9585
9.687	-6.5381	673.1513	55.3199	-247.1671	-60.3612	702.8398	0.65866	49.9673	-4.2596	18.7769	3.6891	42.5516	-0.0592	0.0182	-0.0073	-0.0462	0.0165	0.9585
9.6984	-3.8186	692.534	57.4379	-254.2943	-61.0105	717.5986	-1.2491	36.6235	-3.4024	13.6998	3.5656	31.4144	-0.0592	0.0182	-0.0073	-0.0462	0.0165	0.9585
9.7097	-1.5972	712.0507	59.3926	-261.4601	-61.6448	732.3082	-2.4929	25.832	-2.5613	9.6098	3.2375	22.4481	-0.0592	0.0182	-0.0073	-0.0462	0.0165	0.9585
9.7211	0.30584	730.6775	61.1486	-268.2904	-62.1556	745.9221	-3.0835	17.2939	-1.7803	6.3912	2.7405	15.3779	-0.0592	0.0182	-0.0073	-0.0462	0.0165	0.9585
9.7324	2.0386	747.416	62.7201	-274.4079	-62.4967	757.4673	-3.079	10.8585	-1.1049	3.9782	2.1291	10.0719	-0.0592	0.0182	-0.0073	-0.0462	0.0165	0.9585
9.7438	3.7688	761.3368	64.1601	-279.464	-62.6686	766.0296	-2.6869	6.3577	-0.58405	2.3033	1.515	6.3626	-0.0592	0.0182	-0.0073	-0.0462	0.0165	0.9585
9.7551	5.5983	771.786	65.4781	-283.2091	-62.6544	771.0474	-2.1452	3.5492	-0.20916	1.2658	0.97592	4.0745	-0.0592	0.0182	-0.0073	-0.0462	0.0165	0.9585
9.7665	7.6078	778.4458	66.6335	-285.529	-62.3966	772.2829	-1.5869	2.0161	0.021045	0.71147	0.56425	2.8429	-0.0592	0.0182	-0.0073	-0.0462	0.0165	0.9585
9.7779	9.8135	781.5065	67.5339	-286.495	-61.8003	770.0219	-1.1109	1.3972	0.14439	0.50031	0.28073	2.3739	-0.0592	0.0182	-0.0073	-0.0462	0.0165	0.9585
9.7892	12.2647	781.441	68.0817	-286.2858	-60.7646	764.8104	-0.73275	1.3482	0.18292	0.50343	0.11595	2.3557	-0.0592	0.0182	-0.0073	-0.0462	0.0165	0.9585
9.8006	14.8914	778.8219	68.2674	-285.1063	-59.3101	757.2975	-0.48091	1.6263	0.17237	0.62737	0.04561	2.6023	-0.0592	0.0182	-0.0073	-0.0462	0.0165	0.9585
9.8119	17.6216	774.1111	68.1226	-283.1204	-57.5074	747.9977	-0.3133	2.0509	0.13649	0.80376	0.039492	2.9614	-0.0592	0.0182	-0.0073	-0.0462	0.0165	0.9585
9.8233	20.3306	767.6988	67.7384	-280.4639	-55.4978	737.3722	-0.23297	2.5147	0.0926	0.99188	0.075832	3.3614	-0.0592	0.0182	-0.0073	-0.0462	0.0165	0.9585
9.8346	22.9028	759.9948	67.1785	-277.2879	-53.3944	725.8473	-0.18821	2.9606	0.047265	1.1712	0.12913	3.7525	-0.0592	0.0182	-0.0073	-0.0462	0.0165	0.9585
9.846	25.2402	751.515	66.5063	-273.7831	-51.3056	713.9542	-0.19439	3.3708	0.0076553	1.3352	0.18814	4.1355	-0.0592	0.0182	-0.0073	-0.0462	0.0165	0.9585
9.8574	27.2859	742.9053	65.753	-270.1933	-49.293	702.2701	-0.22323	3.73	-0.021434	1.4799	0.24173	4.4873	-0.0592	0.0182	-0.0073	-0.0462	0.0165	0.9585
9.8687	28.9924	734.8568	64.9494	-266.7819	-47.4135	691.4101	-0.28822	4.0141	-0.050038	1.5955	0.30181	4.788	-0.0592	0.0182	-0.0073	-0.0462	0.0165	0.9585
9.8801	30.4011	728.0492	64.1232	-263.8142	-45.6949	681.9272	-0.36688	4.1889	-0.07027	1.6684	0.35604	4.9779	-0.0592	0.0182	-0.0073	-0.0462	0.0165	0.9585
9.8914	31.557	723.0781	63.3138	-261.5239	-44.1653	674.2844	-0.47369	4.2001	-0.097027	1.6732	0.42023	4.9873	-0.0592	0.0182	-0.0073	-0.0462	0.0165	0.9585
9.9028	32.5679	720.3678	62.568	-260.0793	-42.8314	668.7813	-0.58901	3.951	-0.12207	1.5704	0.4813	4.6863	-0.0592	0.0182	-0.0073	-0.0462	0.0165	0.9585
9.9141	33.5215	720.1268	61.9039	-259.5604	-41.6675	665.5563	-0.71585	3.3113	-0.15228	1.3083	0.54805	3.9243	-0.0592	0.0182	-0.0073	-0.0462	0.0165	0.9585
9.9255	34.4694	722.2539	61.3668	-259.927	-40.6775	664.4893	-0.83064	2.1344	-0.1858	0.83367	0.61416	2.5328	-0.0592	0.0182	-0.0073	-0.0462	0.0165	0.9585
9.9369	35.4367	726.3783	60.9487	-261.0299	-39.8231	665.2483	-0.9025	0.27726	-0.21812	0.094557	0.66206	0.34504	-0.0592	0.0182	-0.0073	-0.0462	0.0165	0.9585
9.9482	36.4069	731.865	60.6783	-262.6128	-39.1082	667.26	-0.8854	-2.3423	-0.24732	-0.93715	0.66586	-2.7363	-0.0592	0.0182	-0.0073	-0.0462	0.0165	0.9585
9.9596	37.3216	737.8607	60.549	-264.339	-38.52	669.7801	-0.70224	-5.6706	-0.25699	-2.2385	0.57777	-6.6436	-0.0592	0.0182	-0.0073	-0.0462	0.0165	0.9585
9.9709	38.1172	743.3613	60.5893	-265.8163	-38.0889	671.9583	-0.27468	-9.4478	-0.23469	-3.7042	0.34908	-11.0697	-0.0592	0.0182	-0.0073	-0.0462	0.0165	0.9585
9.9823	38.7227	747.357	60.791	-266.6545	-37.8244	672.9376	0.50182	-13.0517	-0.14787	-5.0902	-0.094408	-15.2988	-0.0592	0.0182	-0.0073	-0.0462	0.0165	0.9585
9.9936	39.1433	749.0828	61.1495	-266.5553	-37.7248	672.0714	1.6996	-15.3916	0.041871	-5.9674	-0.82534	-18.0656	-0.0592	0.0182	-0.0073	-0.0462	0.0165	0.9585
10.005	39.4815	748.1836	61.6379	-265.3777	-37.7435	669.0473	3.3801	-14.7618	0.37245	-5.6676	-1.9027	-17.3965	-0.0592	0.0182	-0.0073	-0.0462	0.0165	0.9585
10.0164	39.9106	744.7355	62.2237	-263.1488	-37.8058	663.897	5.5037	-8.773	0.88512	-3.2562	-3.349	-10.5099	-0.0592	0.0182	-0.0073	-0.0462	0.0165	0.9585
10.0277	40.697	739.0434	62.8545	-259.9989	-37.7965	656.82	7.9185	5.5815	1.5979	2.4454	-5.1058	6.0969	-0.0592	0.0182	-0.0073	-0.0462	0.0165	0.9585
10.0391	42.0745	731.3326	63.4033	-256.058	-37.5429	647.9426	10.2394	31.7262	2.4904	12.7731	-6.975	36.4381	-0.0592	0.0182	-0.0073	-0.0462	0.0165	0.9585
10.0504	44.2072	721.4188	63.6984	-251.3354	-36.8561	637.0585	11.8051	72.9104	3.4624	28.9909	-8.5527	84.3213	-0.0592	0.0182	-0.0073	-0.0462	0.0165	0.9585
10.0618	47.0773	708.4566	63.4572	-245.6219	-35.506	623.4431	11.5499	131.2666	4.3251	51.9113	-9.1724	152.2862	-0.0592	0.0182	-0.0073	-0.0462	0.0165	0.9585
10.0731	50.441	690.8584	62.3892	-238.451	-33.3286	605.7652	7.9903	206.2228	4.7503	81.2779	-7.8453	239.72	-0.0592	0.0182	-0.0073	-0.0462	0.0165	0.9585
10.0845	53.8279	666.5962	60.1987	-229.1893	-30.2305	582.3885	-0.59776	292.5937	4.2125	115.0135	-3.2995	340.6704	-0.0592	0.0182	-0.0073	-0.0462	0.0165	0.9585
